<svg width="244" height="43" viewBox="0 0 244 43" fill="none" xmlns="http://www.w3.org/2000/svg">
<path d="M57.594 28.242V29.278H53.352V32.568H56.796V33.604H53.352V38H52.078V28.242H57.594ZM64.0607 35.83H59.8047L59.0207 38H57.6767L61.2047 28.298H62.6747L66.1887 38H64.8447L64.0607 35.83ZM63.6967 34.794L61.9327 29.866L60.1687 34.794H63.6967ZM70.5403 38.098C69.8963 38.098 69.3176 37.986 68.8043 37.762C68.3003 37.5287 67.9036 37.2113 67.6143 36.81C67.3249 36.3993 67.1756 35.928 67.1663 35.396H68.5243C68.5709 35.8533 68.7576 36.2407 69.0843 36.558C69.4203 36.866 69.9056 37.02 70.5403 37.02C71.1469 37.02 71.6229 36.8707 71.9683 36.572C72.3229 36.264 72.5003 35.872 72.5003 35.396C72.5003 35.0227 72.3976 34.7193 72.1923 34.486C71.9869 34.2527 71.7303 34.0753 71.4223 33.954C71.1143 33.8327 70.6989 33.702 70.1763 33.562C69.5323 33.394 69.0143 33.226 68.6223 33.058C68.2396 32.89 67.9083 32.6287 67.6283 32.274C67.3576 31.91 67.2223 31.4247 67.2223 30.818C67.2223 30.286 67.3576 29.8147 67.6283 29.404C67.8989 28.9933 68.2769 28.676 68.7623 28.452C69.2569 28.228 69.8216 28.116 70.4563 28.116C71.3709 28.116 72.1176 28.3447 72.6963 28.802C73.2843 29.2593 73.6156 29.866 73.6903 30.622H72.2903C72.2436 30.2487 72.0476 29.922 71.7023 29.642C71.3569 29.3527 70.8996 29.208 70.3303 29.208C69.7983 29.208 69.3643 29.348 69.0283 29.628C68.6923 29.8987 68.5243 30.2813 68.5243 30.776C68.5243 31.1307 68.6223 31.42 68.8183 31.644C69.0236 31.868 69.2709 32.0407 69.5603 32.162C69.8589 32.274 70.2743 32.4047 70.8063 32.554C71.4503 32.7313 71.9683 32.9087 72.3603 33.086C72.7523 33.254 73.0883 33.52 73.3683 33.884C73.6483 34.2387 73.7883 34.724 73.7883 35.34C73.7883 35.816 73.6623 36.264 73.4103 36.684C73.1583 37.104 72.7849 37.4447 72.2903 37.706C71.7956 37.9673 71.2123 38.098 70.5403 38.098ZM82.9011 28.242V38H81.6271V33.576H76.6571V38H75.3831V28.242H76.6571V32.526H81.6271V28.242H82.9011ZM86.0704 28.242V38H84.7964V28.242H86.0704ZM92.3858 38.098C91.4804 38.098 90.6544 37.888 89.9078 37.468C89.1611 37.0387 88.5684 36.446 88.1298 35.69C87.7004 34.9247 87.4858 34.066 87.4858 33.114C87.4858 32.162 87.7004 31.308 88.1298 30.552C88.5684 29.7867 89.1611 29.194 89.9078 28.774C90.6544 28.3447 91.4804 28.13 92.3858 28.13C93.3004 28.13 94.1311 28.3447 94.8778 28.774C95.6244 29.194 96.2124 29.782 96.6418 30.538C97.0711 31.294 97.2858 32.1527 97.2858 33.114C97.2858 34.0753 97.0711 34.934 96.6418 35.69C96.2124 36.446 95.6244 37.0387 94.8778 37.468C94.1311 37.888 93.3004 38.098 92.3858 38.098ZM92.3858 36.992C93.0671 36.992 93.6784 36.8333 94.2198 36.516C94.7704 36.1987 95.1998 35.746 95.5078 35.158C95.8251 34.57 95.9838 33.8887 95.9838 33.114C95.9838 32.33 95.8251 31.6487 95.5078 31.07C95.1998 30.482 94.7751 30.0293 94.2338 29.712C93.6924 29.3947 93.0764 29.236 92.3858 29.236C91.6951 29.236 91.0791 29.3947 90.5378 29.712C89.9964 30.0293 89.5671 30.482 89.2498 31.07C88.9418 31.6487 88.7878 32.33 88.7878 33.114C88.7878 33.8887 88.9418 34.57 89.2498 35.158C89.5671 35.746 89.9964 36.1987 90.5378 36.516C91.0884 36.8333 91.7044 36.992 92.3858 36.992ZM106.36 38H105.086L99.9616 30.23V38H98.6876V28.228H99.9616L105.086 35.984V28.228H106.36V38Z" fill="#A1A1AA"/>
<path d="M173.54 8.03997L169.64 22H166.34L163.72 12.06L160.98 22L157.7 22.02L153.94 8.03997H156.94L159.4 18.88L162.24 8.03997H165.36L168.04 18.82L170.52 8.03997H173.54Z" fill="#18181B"/>
<path d="M177.768 8.03997V22H174.968V8.03997H177.768Z" fill="#18181B"/>
<path d="M182.535 19.78H187.135V22H179.735V8.03997H182.535V19.78Z" fill="#18181B"/>
<path d="M191.314 19.78H195.914V22H188.514V8.03997H191.314V19.78Z" fill="#18181B"/>
<path d="M200.094 8.03997V22H197.294V8.03997H200.094Z" fill="#18181B"/>
<path d="M211.02 19.34H205.46L204.54 22H201.6L206.62 8.01996H209.88L214.9 22H211.94L211.02 19.34ZM210.26 17.1L208.24 11.26L206.22 17.1H210.26Z" fill="#18181B"/>
<path d="M231.397 8.03997V22H228.597V12.92L224.857 22H222.737L218.977 12.92V22H216.177V8.03997H219.357L223.797 18.42L228.237 8.03997H231.397Z" fill="#18181B"/>
<path d="M238.385 22.14C237.412 22.14 236.532 21.9733 235.745 21.64C234.972 21.3066 234.358 20.8266 233.905 20.2C233.452 19.5733 233.218 18.8333 233.205 17.98H236.205C236.245 18.5533 236.445 19.0066 236.805 19.34C237.178 19.6733 237.685 19.84 238.325 19.84C238.978 19.84 239.492 19.6866 239.865 19.38C240.238 19.06 240.425 18.6466 240.425 18.14C240.425 17.7266 240.298 17.3866 240.045 17.12C239.792 16.8533 239.472 16.6466 239.085 16.5C238.712 16.34 238.192 16.1666 237.525 15.98C236.618 15.7133 235.878 15.4533 235.305 15.2C234.745 14.9333 234.258 14.54 233.845 14.02C233.445 13.4866 233.245 12.78 233.245 11.9C233.245 11.0733 233.452 10.3533 233.865 9.73997C234.278 9.12663 234.858 8.65997 235.605 8.33997C236.352 8.00663 237.205 7.83997 238.165 7.83997C239.605 7.83997 240.772 8.1933 241.665 8.89997C242.572 9.5933 243.072 10.5666 243.165 11.82H240.085C240.058 11.34 239.852 10.9466 239.465 10.64C239.092 10.32 238.592 10.16 237.965 10.16C237.418 10.16 236.978 10.3 236.645 10.58C236.325 10.86 236.165 11.2666 236.165 11.8C236.165 12.1733 236.285 12.4866 236.525 12.74C236.778 12.98 237.085 13.18 237.445 13.34C237.818 13.4866 238.338 13.66 239.005 13.86C239.912 14.1266 240.652 14.3933 241.225 14.66C241.798 14.9266 242.292 15.3266 242.705 15.86C243.118 16.3933 243.325 17.0933 243.325 17.96C243.325 18.7066 243.132 19.4 242.745 20.04C242.358 20.68 241.792 21.1933 241.045 21.58C240.298 21.9533 239.412 22.14 238.385 22.14Z" fill="#18181B"/>
<path d="M149.62 22L148.1 20.5C146.807 21.66 145.227 22.24 143.36 22.24C142.334 22.24 141.427 22.0667 140.64 21.72C139.867 21.36 139.267 20.86 138.84 20.22C138.414 19.5667 138.2 18.8133 138.2 17.96C138.2 17.04 138.46 16.2133 138.98 15.48C139.5 14.7467 140.267 14.1533 141.28 13.7C140.92 13.26 140.66 12.84 140.5 12.44C140.34 12.0267 140.26 11.5867 140.26 11.12C140.26 10.48 140.427 9.90666 140.76 9.39999C141.094 8.87999 141.567 8.47332 142.18 8.17999C142.807 7.88666 143.534 7.73999 144.36 7.73999C145.2 7.73999 145.92 7.89999 146.52 8.21999C147.12 8.53999 147.567 8.96666 147.86 9.49999C148.154 10.0333 148.28 10.6267 148.24 11.28H145.52C145.534 10.84 145.427 10.5067 145.2 10.28C144.974 10.04 144.667 9.91999 144.28 9.91999C143.907 9.91999 143.594 10.0333 143.34 10.26C143.1 10.4733 142.98 10.7533 142.98 11.1C142.98 11.4333 143.08 11.7667 143.28 12.1C143.48 12.42 143.807 12.82 144.26 13.3L147.78 16.78C147.807 16.7533 147.827 16.7267 147.84 16.7C147.854 16.6733 147.867 16.6467 147.88 16.62L149.02 14.72H151.94L150.54 17.18C150.274 17.7 149.987 18.1933 149.68 18.66L153.06 22H149.62ZM143.44 19.92C144.534 19.92 145.5 19.5333 146.34 18.76L142.9 15.36C141.607 15.9333 140.96 16.7467 140.96 17.8C140.96 18.4 141.187 18.9067 141.64 19.32C142.094 19.72 142.694 19.92 143.44 19.92Z" fill="#18181B"/>
<path d="M56.2 22.14C55.2267 22.14 54.3467 21.9733 53.56 21.64C52.7867 21.3066 52.1733 20.8266 51.72 20.2C51.2667 19.5733 51.0333 18.8333 51.02 17.98H54.02C54.06 18.5533 54.26 19.0066 54.62 19.34C54.9933 19.6733 55.5 19.84 56.14 19.84C56.7933 19.84 57.3067 19.6866 57.68 19.38C58.0533 19.06 58.24 18.6466 58.24 18.14C58.24 17.7266 58.1133 17.3866 57.86 17.12C57.6067 16.8533 57.2867 16.6466 56.9 16.5C56.5267 16.34 56.0067 16.1666 55.34 15.98C54.4333 15.7133 53.6933 15.4533 53.12 15.2C52.56 14.9333 52.0733 14.54 51.66 14.02C51.26 13.4866 51.06 12.78 51.06 11.9C51.06 11.0733 51.2667 10.3533 51.68 9.73997C52.0933 9.12663 52.6733 8.65997 53.42 8.33997C54.1667 8.00663 55.02 7.83997 55.98 7.83997C57.42 7.83997 58.5867 8.1933 59.48 8.89997C60.3867 9.5933 60.8867 10.5666 60.98 11.82H57.9C57.8733 11.34 57.6667 10.9466 57.28 10.64C56.9067 10.32 56.4067 10.16 55.78 10.16C55.2333 10.16 54.7933 10.3 54.46 10.58C54.14 10.86 53.98 11.2666 53.98 11.8C53.98 12.1733 54.1 12.4866 54.34 12.74C54.5933 12.98 54.9 13.18 55.26 13.34C55.6333 13.4866 56.1533 13.66 56.82 13.86C57.7267 14.1266 58.4667 14.3933 59.04 14.66C59.6133 14.9266 60.1067 15.3266 60.52 15.86C60.9333 16.3933 61.14 17.0933 61.14 17.96C61.14 18.7066 60.9467 19.4 60.56 20.04C60.1733 20.68 59.6067 21.1933 58.86 21.58C58.1133 21.9533 57.2267 22.14 56.2 22.14Z" fill="#18181B"/>
<path d="M73.3475 12.36C73.3475 13.1066 73.1675 13.8066 72.8075 14.46C72.4608 15.1133 71.9075 15.64 71.1475 16.04C70.4008 16.44 69.4542 16.64 68.3075 16.64H65.9675V22H63.1675V8.03997H68.3075C69.3875 8.03997 70.3075 8.22663 71.0675 8.59997C71.8275 8.9733 72.3942 9.48663 72.7675 10.14C73.1542 10.7933 73.3475 11.5333 73.3475 12.36ZM68.1875 14.38C68.9608 14.38 69.5342 14.2066 69.9075 13.86C70.2808 13.5 70.4675 13 70.4675 12.36C70.4675 11 69.7075 10.32 68.1875 10.32H65.9675V14.38H68.1875Z" fill="#18181B"/>
<path d="M77.7355 10.3V13.8H82.4355V16.02H77.7355V19.72H83.0355V22H74.9355V8.01996H83.0355V10.3H77.7355Z" fill="#18181B"/>
<path d="M97.12 22H94.32L87.98 12.42V22H85.18V8.01996H87.98L94.32 17.62V8.01996H97.12V22Z" fill="#18181B"/>
<path d="M98.807 15C98.807 13.6266 99.1137 12.4 99.727 11.32C100.354 10.2266 101.2 9.37997 102.267 8.77997C103.347 8.16663 104.554 7.85997 105.887 7.85997C107.447 7.85997 108.814 8.25997 109.987 9.05997C111.16 9.85997 111.98 10.9666 112.447 12.38H109.227C108.907 11.7133 108.454 11.2133 107.867 10.88C107.294 10.5466 106.627 10.38 105.867 10.38C105.054 10.38 104.327 10.5733 103.687 10.96C103.06 11.3333 102.567 11.8666 102.207 12.56C101.86 13.2533 101.687 14.0666 101.687 15C101.687 15.92 101.86 16.7333 102.207 17.44C102.567 18.1333 103.06 18.6733 103.687 19.06C104.327 19.4333 105.054 19.62 105.867 19.62C106.627 19.62 107.294 19.4533 107.867 19.12C108.454 18.7733 108.907 18.2666 109.227 17.6H112.447C111.98 19.0266 111.16 20.14 109.987 20.94C108.827 21.7266 107.46 22.12 105.887 22.12C104.554 22.12 103.347 21.82 102.267 21.22C101.2 20.6066 100.354 19.76 99.727 18.68C99.1137 17.6 98.807 16.3733 98.807 15Z" fill="#18181B"/>
<path d="M117.239 10.3V13.8H121.939V16.02H117.239V19.72H122.539V22H114.439V8.01996H122.539V10.3H117.239Z" fill="#18181B"/>
<path d="M131.883 22L128.803 16.56H127.483V22H124.683V8.03997H129.923C131.003 8.03997 131.923 8.2333 132.683 8.61997C133.443 8.9933 134.01 9.50663 134.383 10.16C134.77 10.8 134.963 11.52 134.963 12.32C134.963 13.24 134.696 14.0733 134.163 14.82C133.63 15.5533 132.836 16.06 131.783 16.34L135.123 22H131.883ZM127.483 14.46H129.823C130.583 14.46 131.15 14.28 131.523 13.92C131.896 13.5466 132.083 13.0333 132.083 12.38C132.083 11.74 131.896 11.2466 131.523 10.9C131.15 10.54 130.583 10.36 129.823 10.36H127.483V14.46Z" fill="#18181B"/>
<path fill-rule="evenodd" clip-rule="evenodd" d="M38.2536 14.919L41.6231 18.2886C43.3805 20.0459 43.3805 22.8952 41.6231 24.6525L41.0226 25.2531L38.2536 14.919ZM36.1322 12.7977L39.7978 26.4778L30.24 36.0356L16.4075 39.742L6.54525 29.8798L2.9911 16.6155L13.158 6.44863L26.2698 2.93532L36.1322 12.7977ZM25.0451 1.71057L24.6525 1.31802C22.8952 -0.43934 20.0459 -0.43934 18.2886 1.31802L15.2793 4.32731L25.0451 1.71057ZM1.76635 17.8402L1.31802 18.2886C-0.439339 20.0459 -0.43934 22.8952 1.31802 24.6525L4.42393 27.7585L1.76635 17.8402ZM17.6323 40.9668L18.2886 41.6231C20.0459 43.3805 22.8952 43.3805 24.6525 41.6231L28.1187 38.1569L17.6323 40.9668Z" fill="#A1A1AA"/>
<path fill-rule="evenodd" clip-rule="evenodd" d="M5.47709 8.50673L28.6593 2.29508C31.0599 1.65184 33.5274 3.07646 34.1707 5.47706L40.3823 28.6593C41.0256 31.0599 39.6009 33.5274 37.2003 34.1706L14.0181 40.3823C11.6175 41.0255 9.15 39.6009 8.50676 37.2003L2.29511 14.0181C1.65187 11.6175 3.07649 9.14997 5.47709 8.50673Z" fill="#27272A"/>
<path d="M15.5773 29.2453C14.8251 29.4468 14.1106 29.5002 13.4337 29.4055C12.7671 29.3081 12.1938 29.0642 11.7137 28.6738C11.2336 28.2834 10.9001 27.7599 10.7131 27.1032L13.0313 26.4821C13.181 26.9168 13.4294 27.2257 13.7766 27.4088C14.1341 27.589 14.5601 27.6129 15.0547 27.4804C15.5595 27.3451 15.9245 27.1204 16.1495 26.8061C16.3717 26.4815 16.4304 26.1235 16.3254 25.7319C16.2399 25.4125 16.0716 25.176 15.8206 25.0224C15.5696 24.8688 15.2796 24.7754 14.9504 24.7421C14.6288 24.6958 14.1911 24.6695 13.6373 24.6633C12.8814 24.6449 12.2558 24.5972 11.7603 24.5202C11.2723 24.4301 10.8148 24.2269 10.3877 23.9107C9.96822 23.5814 9.66735 23.0767 9.48514 22.3967C9.31397 21.7579 9.32459 21.1587 9.517 20.5992C9.70941 20.0397 10.061 19.559 10.5717 19.1571C11.0797 18.7449 11.7045 18.4394 12.4464 18.2406C13.5591 17.9425 14.5338 17.974 15.3705 18.3351C16.2146 18.6831 16.8025 19.3317 17.1342 20.2809L14.7541 20.9186C14.6341 20.5532 14.393 20.2921 14.0307 20.1351C13.676 19.9652 13.2565 19.9451 12.7722 20.0748C12.3498 20.188 12.0388 20.3873 11.8391 20.6727C11.6498 20.9553 11.6104 21.3027 11.7208 21.7148C11.7981 22.0033 11.9557 22.2206 12.1937 22.3666C12.4391 22.4996 12.7175 22.5907 13.0288 22.6398C13.3477 22.6758 13.7854 22.7021 14.342 22.7186C15.0978 22.737 15.7248 22.7898 16.2231 22.8771C16.7213 22.9645 17.1854 23.1714 17.6152 23.498C18.045 23.8245 18.3497 24.3227 18.5291 24.9924C18.6837 25.5694 18.6779 26.1452 18.5116 26.7198C18.3453 27.2944 18.0137 27.8084 17.5168 28.2618C17.0171 28.7049 16.3706 29.0327 15.5773 29.2453Z" fill="white"/>
<path d="M32.3067 13.0847L32.1835 24.6797L29.6334 25.363L25.5507 18.2244L25.4915 26.4728L22.9611 27.1674L17.1609 17.143L19.4792 16.5219L23.6246 24.389L23.5747 15.4245L25.9856 14.7785L30.2886 22.5537L29.973 13.7101L32.3067 13.0847Z" fill="white"/>
</svg>
